HIERARCHY
ROOT Hips
{
    OFFSET 0.000000 0.000000 0.000000
    CHANNELS 6 Xposition Yposition Zposition Zrotation Xrotation Yrotation
    JOINT Spine
    {
        OFFSET -0.000000 0.081015 0.000000
        CHANNELS 3 Zrotation Xrotation Yrotation
        JOINT Spine1
        {
            OFFSET -0.000000 0.240812 0.000000
            CHANNELS 3 Zrotation Xrotation Yrotation
            JOINT Neck
            {
                OFFSET -0.000000 0.239823 0.021802
                CHANNELS 3 Zrotation Xrotation Yrotation
                JOINT Head
                {
                    OFFSET -0.000000 0.148909 -0.021273
                    CHANNELS 3 Zrotation Xrotation Yrotation
                    End Site
                    {
                        OFFSET -0.000000 0.197598 0.000000
                    }
                }
            }
            JOINT LeftShoulder
            {
                OFFSET 0.039829 0.224972 -0.001181
                CHANNELS 3 Zrotation Xrotation Yrotation
                JOINT LeftArm
                {
                    OFFSET 0.107364 0.000000 0.000000
                    CHANNELS 3 Zrotation Xrotation Yrotation
                    JOINT LeftForeArm
                    {
                        OFFSET 0.283104 0.000000 0.000000
                        CHANNELS 3 Zrotation Xrotation Yrotation
                        JOINT LeftHand
                        {
                            OFFSET 0.324767 0.000000 0.000000
                            CHANNELS 3 Zrotation Xrotation Yrotation
                            End Site
                            {
                                OFFSET 0.148198 0.000000 0.000000
                            }
                        }
                    }
                }
            }
            JOINT RightShoulder
            {
                OFFSET -0.039119 0.224972 -0.001181
                CHANNELS 3 Zrotation Xrotation Yrotation
                JOINT RightArm
                {
                    OFFSET -0.107364 0.000000 0.000000
                    CHANNELS 3 Zrotation Xrotation Yrotation
                    JOINT RightForeArm
                    {
                        OFFSET -0.283104 0.000000 0.000000
                        CHANNELS 3 Zrotation Xrotation Yrotation
                        JOINT RightHand
                        {
                            OFFSET -0.324767 0.000000 0.000000
                            CHANNELS 3 Zrotation Xrotation Yrotation
                            End Site
                            {
                                OFFSET -0.148198 0.000000 0.000000
                            }
                        }
                    }
                }
            }
        }
    }
    JOINT LeftUpLeg
    {
        OFFSET 0.098799 0.000000 0.000000
        CHANNELS 3 Zrotation Xrotation Yrotation
        JOINT LeftLeg
        {
            OFFSET -0.000000 -0.332632 0.000000
            CHANNELS 3 Zrotation Xrotation Yrotation
            JOINT LeftFoot
            {
                OFFSET -0.000000 -0.498967 0.000000
                CHANNELS 3 Zrotation Xrotation Yrotation
                JOINT LeftToeBase
                {
                    OFFSET -0.000000 -0.064219 0.148198
                    CHANNELS 3 Zrotation Xrotation Yrotation
                    End Site
                    {
                        OFFSET -0.000000 0.000000 0.039520
                    }
                }
            }
        }
    }
    JOINT RightUpLeg
    {
        OFFSET -0.098799 0.000000 0.000000
        CHANNELS 3 Zrotation Xrotation Yrotation
        JOINT RightLeg
        {
            OFFSET -0.000000 -0.332632 0.000000
            CHANNELS 3 Zrotation Xrotation Yrotation
            JOINT RightFoot
            {
                OFFSET -0.000000 -0.498967 0.000000
                CHANNELS 3 Zrotation Xrotation Yrotation
                JOINT RightToeBase
                {
                    OFFSET -0.000000 -0.064219 0.148198
                    CHANNELS 3 Zrotation Xrotation Yrotation
                    End Site
                    {
                        OFFSET -0.000000 0.000000 0.039520
                    }
                }
            }
        }
    }
}
MOTION
Frames:    9
Frame Time:    0.010000
-0.189313    0.778105    2.112808    -3.631359    -10.667671    5.061896    6.401477    -0.637568    -8.968522    -10.446672    32.672733    0.065794    -16.162085    -8.729213    6.343986    10.031425    47.274445    7.115610    -19.862171    15.611780    21.914055    -48.022537    17.047632    -23.082796    74.734924    -54.995358    -56.362980    54.368164    -6.053735    19.724501    -5.433799    24.682844    31.960537    39.657398    13.958775    35.762897    -108.323242    -29.077385    2.225308    -31.549301    -31.657169    21.230179    -27.870504    -67.908089    -42.630928    154.517960    76.778168    -165.394760    18.215662    -23.956263    20.956766    0.000000    0.000000    0.000000    -2.911927    -31.427679    -15.268606    -134.604446    83.299377    111.543785    26.591370    -26.537401    27.740995    0.000000    0.000000    0.000000    
-0.193932    0.787314    2.123870    -3.673409    -10.671086    5.062794    6.623486    -1.222288    -10.029858    -11.334167    33.155975    0.014820    -15.935297    -8.736715    7.025828    9.110128    46.896622    8.105883    -19.615852    14.963362    23.036474    -47.996441    16.650501    -23.356030    73.633942    -54.833069    -57.514343    54.215664    -5.362733    20.137371    -6.213071    24.403633    33.117496    40.926849    12.394634    35.300480    -108.323242    -29.077385    2.225308    -31.549301    -31.657169    21.230179    -27.870504    -67.908089    -42.630928    154.517960    76.778168    -165.394760    18.215662    -23.956263    20.956766    0.000000    0.000000    0.000000    -2.911927    -31.427679    -15.268606    -134.604446    83.299377    111.543785    26.591370    -26.537401    27.740995    0.000000    0.000000    0.000000    
-0.198611    0.796412    2.134921    -3.741811    -10.675971    5.066637    6.992082    -1.752101    -10.911101    -12.380918    33.522446    0.066860    -15.548100    -8.646133    7.610994    8.260721    46.527470    8.914165    -19.122015    14.444776    24.128328    -47.431400    17.573999    -23.758953    75.092552    -54.715633    -55.918629    54.186832    -5.030248    21.121674    -6.721160    24.198769    33.727654    41.550617    11.916188    35.200867    -108.323242    -29.077385    2.225308    -31.549301    -31.657169    21.230179    -27.870504    -67.908089    -42.630928    154.517960    76.778168    -165.394760    18.215662    -23.956263    20.956766    0.000000    0.000000    0.000000    -2.911927    -31.427679    -15.268606    -134.604446    83.299377    111.543785    26.591370    -26.537401    27.740995    0.000000    0.000000    0.000000    
-0.206215    0.805815    2.141476    -4.029932    -10.529210    4.641298    6.890831    -1.573935    -11.633504    -12.427326    33.243416    -0.189696    -15.416691    -8.290527    8.324224    7.294071    45.747833    9.940754    -18.907108    13.584135    25.248028    -47.313404    16.887331    -23.617634    72.967094    -54.594601    -58.122704    54.209145    -4.161816    21.581791    -7.605117    23.841633    35.098221    39.985001    19.356018    33.588444    -108.323242    -29.077385    2.225308    -31.549301    -31.657169    21.230179    -27.870504    -67.908089    -42.630928    154.517960    76.778168    -165.394760    18.215662    -23.956263    20.956766    0.000000    0.000000    0.000000    -2.911927    -31.427679    -15.268606    -134.604446    83.299377    111.543785    26.591370    -26.537401    27.740995    0.000000    0.000000    0.000000    
-0.208290    0.813003    2.157684    -3.878936    -10.708808    5.141317    7.287626    -3.147722    -12.798132    -13.978772    34.771099    0.061584    -14.918048    -7.987022    8.838728    6.265045    45.145321    10.675155    -18.318810    12.886126    26.087717    -47.391163    16.964478    -23.621922    72.607803    -54.566250    -58.635471    53.989326    -3.633797    22.161821    -7.605117    23.841633    35.098221    39.511276    19.438597    33.965092    -108.323242    -29.077385    2.225308    -31.549301    -31.657169    21.230179    -27.870504    -67.908089    -42.630928    154.517960    76.778168    -165.394760    18.215662    -23.956263    20.956766    0.000000    0.000000    0.000000    -2.911927    -31.427679    -15.268606    -134.604446    83.299377    111.543785    26.591370    -26.537401    27.740995    0.000000    0.000000    0.000000    
-0.213200    0.821056    2.169215    -3.878936    -10.708808    5.141317    0.614491    8.451127    0.446106    6.876484    12.903522    -0.286895    -14.918048    -7.987022    8.838728    6.265045    45.145321    10.675155    -23.309378    24.336882    8.630835    -48.255653    10.521127    -17.203470    59.348412    -52.432617    -73.565529    53.967232    -0.180247    18.403643    1.402665    36.680038    12.939754    39.043488    14.780523    28.845755    -108.323242    -29.077385    2.225308    -31.549301    -31.657169    21.230179    -27.870504    -67.908089    -42.630928    154.517960    76.778168    -165.394760    18.215662    -23.956263    20.956766    0.000000    0.000000    0.000000    -2.911927    -31.427679    -15.268606    -134.604446    83.299377    111.543785    26.591370    -26.537401    27.740995    0.000000    0.000000    0.000000    
-0.217096    0.826811    2.180936    -3.762672    -10.935225    4.829843    0.723162    8.453689    0.456237    6.556123    12.888346    -0.231616    -14.918048    -7.987022    8.838728    6.265045    45.145321    10.675155    -23.368183    24.600513    8.996610    -47.714931    10.025162    -17.753876    58.842716    -52.299335    -74.320335    53.614285    0.475208    18.987410    1.662674    36.884689    12.209759    39.844101    7.853742    29.681362    -108.323242    -29.077385    2.225308    -31.549301    -31.657169    21.230179    -27.870504    -67.908089    -42.630928    154.517960    76.778168    -165.394760    18.215662    -23.956263    20.956766    0.000000    0.000000    0.000000    -2.911927    -31.427679    -15.268606    -134.604446    83.299377    111.543785    26.591370    -26.537401    27.740995    0.000000    0.000000    0.000000    
-0.250824    0.864509    2.259355    -6.085452    -25.966999    -8.174984    -6.341255    10.245289    7.931587    12.374954    25.711897    4.527775    -14.918048    -7.987022    8.838728    6.265045    45.145321    10.675155    -23.404455    24.884825    9.324756    -47.184719    9.709369    -18.214993    58.730972    -52.296627    -74.708488    53.227184    1.017354    19.630327    1.983800    37.115883    11.519044    39.367718    8.440840    29.332283    -108.323242    -29.077385    2.225308    -31.549301    -31.657169    21.230179    -27.870504    -67.908089    -42.630928    154.517960    76.778168    -165.394760    18.215662    -23.956263    20.956766    0.000000    0.000000    0.000000    -2.911927    -31.427679    -15.268606    -134.604446    83.299377    111.543785    26.591370    -26.537401    27.740995    0.000000    0.000000    0.000000    
-0.255683    0.868712    2.270037    -6.084415    -26.105082    -8.472360    -6.221871    10.270990    7.945256    12.014702    25.664377    4.639130    -14.918048    -7.987022    8.838728    6.265045    45.145321    10.675155    -23.411840    25.067797    9.709931    -46.730469    9.079404    -18.713024    58.045692    -52.192268    -75.689323    52.780285    1.595266    20.179892    1.983800    37.115883    11.519044    39.976002    6.309009    28.329473    -108.323242    -29.077385    2.225308    -31.549301    -31.657169    21.230179    -27.870504    -67.908089    -42.630928    154.517960    76.778168    -165.394760    18.215662    -23.956263    20.956766    0.000000    0.000000    0.000000    -2.911927    -31.427679    -15.268606    -134.604446    83.299377    111.543785    26.591370    -26.537401    27.740995    0.000000    0.000000    0.000000    
